<svg version="1.1" xmlns="http://www.w3.org/2000/svg" xmlns:xlink="http://www.w3.org/1999/xlink" x="0px" y="0px"
	 viewBox="0 0 100 85.8" style="enable-background:new 0 0 100 85.8;" xml:space="preserve">
	<g id="Layer_0">
<g id="Layer_1">
	<g>
		<path d="M67.8,31.3c-1.1,0,4.1,6.3,4.1,6.3c2,2.4,1.5,5.9-0.9,7.8L50.5,60.9C48,62.8,46,66.9,46,70v10.1c0,3.1,2.6,5.7,5.7,5.7
			h42.7c3.1,0,5.7-2.6,5.7-5.7V37.5c0-3.1-2.5-5.8-5.7-5.9C94.3,31.6,87.5,31.3,67.8,31.3z M73,62.9c-2.2,0-4-1.8-4-4
			c0-2.2,1.8-4,4-4c2.2,0,4,1.8,4,4C77.1,61.1,75.2,62.9,73,62.9z"/>
	</g>
</g>
<g id="Layer_4">
	<g>
		<path d="M46.3,6.7C43.5,3,38.1,2.3,34.4,5.2L6.7,26.6C3,29.5,2.3,34.8,5.2,38.5l21.4,27.7c2.9,3.7,8.2,4.4,11.9,1.5l27.7-21.4
			c3.7-2.9,4.4-8.2,1.5-11.9L46.3,6.7z M20.6,37.2c-1.7,1.3-4.2,1-5.5-0.7c-1.3-1.7-1-4.2,0.7-5.5c1.7-1.3,4.2-1,5.5,0.7
			C22.6,33.5,22.3,35.9,20.6,37.2z M36.5,57.8c-1.7,1.3-4.2,1-5.5-0.7c-1.3-1.7-1-4.2,0.7-5.5c1.7-1.3,4.2-1,5.5,0.7
			C38.5,54,38.2,56.5,36.5,57.8z M38.9,39.6c-1.7,1.3-4.2,1-5.5-0.7c-1.3-1.7-1-4.2,0.7-5.5c1.7-1.3,4.2-1,5.5,0.7
			C40.9,35.8,40.6,38.2,38.9,39.6z M41.2,21.3c-1.7,1.3-4.2,1-5.5-0.7c-1.3-1.7-1-4.2,0.7-5.5c1.7-1.3,4.2-1,5.5,0.7
			C43.2,17.6,42.9,20,41.2,21.3z M57.1,41.9c-1.7,1.3-4.2,1-5.5-0.7c-1.3-1.7-1-4.2,0.7-5.5c1.7-1.3,4.2-1,5.5,0.7
			C59.1,38.1,58.8,40.6,57.1,41.9z"/>
	</g>
</g>
</g>

</svg>
